<svg xmlns="http://www.w3.org/2000/svg" viewBox="0 0 512 512" width="256" height="256" aria-label="WhatsApp">
  <!-- Fondo circular -->
  <circle cx="256" cy="256" r="224" fill="currentColor"></circle>
  
  <!-- Globo de WhatsApp con teléfono -->
  <path fill="#ffffff" d="M256 128c-70.7 0-128 54.6-128 122.1 0 24.1 7.4 46.6 20.2 65.5l-13.2 48.3 49.5-13c18 11.8 39.5 18.6 62.6 18.6 70.7 0 128-54.6 128-122.1S326.7 128 256 128zm0 212.8c-20.3 0-39.9-6-56.5-17.3l-4-2.6-29.4 7.8 7.9-28.6-2.6-4c-12-17.3-18.4-37.6-18.4-58.2 0-57.9 48.3-104.9 107-104.9 28.5 0 55.2 10.9 75.3 30.7 20.1 19.8 31.2 46.1 31.2 74.2 0 57.9-48.3 104.9-107 104.9zm64.3-78.1c-3.5-1.8-20.6-10.2-23.7-11.4-3.2-1.2-5.5-1.8-7.8 1.8s-8.9 11.4-10.9 13.8c-2 2.4-4 2.7-7.5 0.9-20.4-10.1-33.8-35.9-34.8-37.6-.9-1.8-.1-4 1.3-5.3 1.3-1.3 3-3.5 4.4-5.3 1.5-1.8 2-3.1 3-5.2 1-2.1.5-3.9-.2-5.3-.7-1.3-7.8-18.6-10.7-25.5-2.8-6.7-5.6-5.8-7.8-5.9-2-.1-4.3-.1-6.6-.1s-6 0-9.2 4.3c-3.2 4.3-12.1 11.8-12.1 28.7s12.4 33.2 14.1 35.5c1.7 2.4 24.3 37 59 52.1 8.2 3.6 14.6 5.7 19.6 7.2 8.2 2.6 15.6 2.2 21.5 1.3 6.6-1 20.6-8.4 23.5-16.6 2.9-8.2 2.9-15.2 2-16.6-1-1.3-3.2-2.1-6.6-3.9z"></path>
</svg>
